<svg xmlns="http://www.w3.org/2000/svg" width="256" height="256" viewBox="0 0 100 100"><rect width="100" height="100" rx="20" fill="#bab5af"></rect><path fill="#21201f" d="M27.35 69.83L4.92 69.83L4.92 64.56L12.85 64.56L12.85 34.59L5.31 34.59L5.31 29.33L26.96 29.33L26.96 34.59L19.03 34.59L19.03 64.63L27.35 64.63L27.35 69.83ZM45.22 70.67L45.22 70.67Q42.23 70.67 39.57 69.60Q36.90 68.53 35.02 66.19L35.02 66.19L38.27 61.31L38.72 60.79L39.18 61.12Q39.24 61.64 39.47 62.12Q39.70 62.61 40.48 63.33L40.48 63.33Q41.45 64.04 42.49 64.46Q43.53 64.89 44.83 64.89L44.83 64.89Q46.72 64.89 47.92 63.94Q49.12 63 49.71 60.95Q50.29 58.91 50.29 55.72L50.29 55.72L50.29 34.59L42.75 34.59L42.75 29.33L62.77 29.33L62.77 34.59L56.73 34.59L56.73 56.11Q56.79 59.88 55.85 62.68Q54.91 65.47 53.25 67.26Q51.59 69.05 49.55 69.86Q47.50 70.67 45.22 70.67L45.22 70.67ZM67.84 69.83L67.84 29.33L74.34 29.33L74.93 29.33L74.93 29.91Q74.54 30.30 74.47 30.76Q74.41 31.22 74.41 32.32L74.41 32.32L74.41 46.04L87.99 46.04L87.99 29.33L94.43 29.33L95.08 29.33L95.08 29.91Q94.69 30.30 94.59 30.76Q94.49 31.22 94.49 32.32L94.49 32.32L94.49 69.83L87.93 69.83L87.93 51.23L74.41 51.23L74.41 69.83L67.84 69.83Z"></path></svg>